<svg xmlns="http://www.w3.org/2000/svg" xmlns:xlink="http://www.w3.org/1999/xlink" width="200" height="60" viewBox="0 0 200 60"><defs><style>.a{fill:#fff;}.a,.c{stroke:#707070;}.b{clip-path:url(#a);}.c{fill:#707070;}</style><clipPath id="a"><rect class="a" width="200" height="60" transform="translate(259 22)"/></clipPath></defs><g transform="translate(-253 -22)"><g class="b" transform="translate(-6)"><path class="c" d="M19.9,0H3.947V-30.108H19.232v3.191H7.475V-16.9H18.351v3.17H7.475v10.54H19.9ZM46.485,0h-4.3L35.252-11.527a10.337,10.337,0,0,1-.693-1.491h-.084q-.21.483-.714,1.491L26.623,0H22.3L32.376-15.138,23.1-30.108h4.325l6.152,10.582a21.226,21.226,0,0,1,1.071,2.1h.084A23.183,23.183,0,0,1,35.9-19.61l6.4-10.5h4.052L36.89-15.18ZM74.368,0H70.463L67.271-8.44H54.506L51.5,0H47.577L59.125-30.108h3.653ZM66.117-11.611,61.393-24.439a12.284,12.284,0,0,1-.462-2.016h-.084a11.246,11.246,0,0,1-.483,2.016L55.682-11.611ZM109.495,0h-3.506V-20.2q0-2.394.294-5.858H106.2a18.728,18.728,0,0,1-.9,2.918L95.007,0H93.286L83.019-22.97a18,18,0,0,1-.9-3.086h-.084q.168,1.806.168,5.9V0H78.8V-30.108h4.661l9.238,21A26.884,26.884,0,0,1,94.083-5.5h.126q.9-2.478,1.449-3.7l9.427-20.912h4.409Zm11.443-11.38V0H117.41V-30.108h8.272q4.829,0,7.485,2.352a8.4,8.4,0,0,1,2.656,6.635,9.125,9.125,0,0,1-2.95,7.013,11.271,11.271,0,0,1-7.968,2.729Zm0-15.537v12.346h3.7a8.262,8.262,0,0,0,5.574-1.669,5.91,5.91,0,0,0,1.921-4.714q0-5.963-7.055-5.963ZM157.114,0H141.493V-30.108h3.527V-3.191h12.094ZM177.69,0H161.733V-30.108h15.285v3.191H165.26V-16.9h10.876v3.17H165.26v10.54h12.43Z" transform="translate(269 67)"/></g></g></svg>